<svg id="Capa_1" enable-background="new 0 0 512 512" height="512" viewBox="0 0 512 512" width="512" xmlns="http://www.w3.org/2000/svg"><g><path d="m250.849 330.775h-36.1l-1 2.118v31.277c0 .585-.476 1.061-1.061 1.061h-25.455c-.585 0-1.061-.476-1.061-1.061v-31.29l-1-2.105h-82.501l-1 1.924v31.47c0 .585-.476 1.061-1.061 1.061h-25.454c-.585 0-1.061-.476-1.061-1.061v-31.501l-1-1.894h-36.188v100.682h219.093v-95.531c0-2.844-2.306-5.15-5.151-5.15z" fill="#ea9b58"/><path d="m474.093 0h-35.189l-1 1.653v31.828c0 .584-.476 1.06-1.061 1.06h-25.455c-.585 0-1.061-.476-1.061-1.06v-32.013l-1-1.468h-82.501l-1 1.592v31.889c0 .584-.476 1.06-1.06 1.06h-25.456c-.584 0-1.06-.476-1.06-1.06v-32.084l-1-1.397h-82.501l-1 1.08v32.401c0 .584-.476 1.06-1.061 1.06h-25.455c-.585 0-1.061-.476-1.061-1.06v-32.252l-1-1.229h-36.1c-2.845 0-5.151 2.306-5.151 5.151v95.531h331.171v-98.682z" fill="#ea9b58"/><g><g><g><g><path d="m102.672 168.823-1 1.768v31.839c0 .584-.476 1.06-1.061 1.06h-25.455c-.585 0-1.061-.476-1.061-1.06v-32.087l-1-1.52h-36.188v100.682h108.016v-98.505l-1-2.177z" fill="#80d261"/><path d="m37.907 168.823h26.479v100.682h-26.479z" fill="#68ca44"/><g><path d="m73.096 168.823v33.607c0 1.138.922 2.06 2.06 2.06h25.455c1.138 0 2.06-.922 2.06-2.06v-33.607z" fill="#fd4755"/></g></g><g><path d="m101.432 235.685h-27.096c-4.143 0-7.5-3.358-7.5-7.5s3.357-7.5 7.5-7.5h27.096c4.143 0 7.5 3.358 7.5 7.5s-3.358 7.5-7.5 7.5z" fill="#fff"/></g></g><g><g><path d="m214.749 168.823-1 1.436v32.171c0 .584-.476 1.06-1.061 1.06h-25.455c-.585 0-1.061-.476-1.061-1.06v-32.18l-1-1.428h-41.251v100.682h113.079v-98.504l-1-2.177z" fill="#01c0fa"/><path d="m143.923 168.823h32.753v100.682h-32.753z" fill="#08a9f1"/><g><path d="m185.173 168.823v33.607c0 1.138.922 2.06 2.06 2.06h25.455c1.138 0 2.06-.922 2.06-2.06v-33.607z" fill="#fd4755"/></g></g><g><path d="m213.509 235.685h-27.096c-4.143 0-7.5-3.358-7.5-7.5s3.357-7.5 7.5-7.5h27.096c4.143 0 7.5 3.358 7.5 7.5s-3.358 7.5-7.5 7.5z" fill="#fff"/></g></g><g><g><path d="m326.827 168.823-1 1.677v31.93c0 .584-.476 1.06-1.06 1.06h-25.456c-.584 0-1.06-.476-1.06-1.06v-32.135l-1-1.472h-41.251v100.682h113.077v-98.505l-1-2.177z" fill="#80d261"/><path d="m256 168.823h32.148v100.682h-32.148z" fill="#68ca44"/><g><path d="m297.251 168.823v33.607c0 1.138.922 2.06 2.06 2.06h25.455c1.138 0 2.06-.922 2.06-2.06v-33.607z" fill="#fd4755"/></g></g><g><path d="m325.586 235.685h-27.095c-4.143 0-7.5-3.358-7.5-7.5s3.357-7.5 7.5-7.5h27.095c4.143 0 7.5 3.358 7.5 7.5s-3.358 7.5-7.5 7.5z" fill="#fff"/></g></g><g><g><path d="m438.904 168.823-1 2.024v31.584c0 .584-.476 1.06-1.061 1.06h-25.455c-.585 0-1.061-.476-1.061-1.06v-31.55l-1-2.057h-41.25v100.682h107.016v-100.683z" fill="#01c0fa"/><path d="m368.077 168.823h32.148v100.682h-32.148z" fill="#08a9f1"/><g><path d="m409.328 168.823v33.607c0 1.138.922 2.06 2.06 2.06h25.455c1.138 0 2.06-.922 2.06-2.06v-33.607z" fill="#fd4755"/></g></g><g><path d="m437.664 235.685h-27.096c-4.143 0-7.5-3.358-7.5-7.5s3.357-7.5 7.5-7.5h27.096c4.143 0 7.5 3.358 7.5 7.5s-3.357 7.5-7.5 7.5z" fill="#fff"/></g></g></g><g><path d="m36.907 268.505h438.187v25.964h-438.187z" fill="#faea5e"/></g><g><path d="m37.907 268.506h38.842v25.963h-38.842z" fill="#ffd600"/></g><g><g><g><g><path d="m36.907 330.775h27.479v100.682h-27.479z" fill="#d88a55"/><g><path d="m73.096 330.775v33.394c0 1.138.922 2.06 2.06 2.06h25.455c1.138 0 2.06-.922 2.06-2.06v-33.394z" fill="#fd4755"/></g></g><g><path d="m101.432 397.423h-27.096c-4.143 0-7.5-3.358-7.5-7.5s3.357-7.5 7.5-7.5h27.096c4.143 0 7.5 3.358 7.5 7.5s-3.358 7.5-7.5 7.5z" fill="#ffbd86"/></g></g><g><g><path d="m143.923 330.775h32.753v100.682h-32.753z" fill="#d88a55"/><g><path d="m185.173 330.775v33.394c0 1.138.922 2.06 2.06 2.06h25.455c1.138 0 2.06-.922 2.06-2.06v-33.394z" fill="#fd4755"/></g></g><g><path d="m213.509 397.423h-27.096c-4.143 0-7.5-3.358-7.5-7.5s3.357-7.5 7.5-7.5h27.096c4.143 0 7.5 3.358 7.5 7.5s-3.358 7.5-7.5 7.5z" fill="#ffbd86"/></g></g><g><g><path d="m438.904 330.775-1 2.245v31.15c0 .585-.476 1.061-1.061 1.061h-25.455c-.585 0-1.061-.476-1.061-1.061v-31.401l-1-1.993h-36.1c-2.845 0-5.151 2.306-5.151 5.151v95.531h107.016v-100.683z" fill="#ea9b58"/><path d="m368.077 335.926v95.531h32.148v-95.531c0-2.845 2.306-5.151 5.151-5.151h-32.148c-2.845 0-5.151 2.306-5.151 5.151z" fill="#d88a55"/><g><path d="m409.328 330.775v33.394c0 1.138.922 2.06 2.06 2.06h25.455c1.138 0 2.06-.922 2.06-2.06v-33.394z" fill="#fd4755"/></g></g><g><path d="m437.664 397.423h-27.096c-4.143 0-7.5-3.358-7.5-7.5s3.357-7.5 7.5-7.5h27.096c4.143 0 7.5 3.358 7.5 7.5s-3.357 7.5-7.5 7.5z" fill="#ffbd86"/></g></g></g><g><path d="m36.907 430.457h438.187v25.964h-438.187z" fill="#faea5e"/></g><g><path d="m37.907 430.457h38.842v25.963h-38.842z" fill="#ffd600"/></g></g><g><g><g><path d="m176.676 100.682v-95.531c0-2.845 2.306-5.151 5.151-5.151h-32.753c-2.845 0-5.151 2.306-5.151 5.151v95.531z" fill="#d88a55"/><g><path d="m185.173 0v33.481c0 1.138.922 2.06 2.06 2.06h25.455c1.138 0 2.06-.922 2.06-2.06v-33.481z" fill="#fd4755"/></g></g><g><path d="m213.509 66.735h-27.096c-4.143 0-7.5-3.358-7.5-7.5s3.357-7.5 7.5-7.5h27.096c4.143 0 7.5 3.358 7.5 7.5s-3.358 7.5-7.5 7.5z" fill="#ffbd86"/></g></g><g><g><path d="m256 0h32.148v100.682h-32.148z" fill="#d88a55"/><g><path d="m297.251 0v33.481c0 1.138.922 2.06 2.06 2.06h25.455c1.138 0 2.06-.922 2.06-2.06v-33.481z" fill="#fd4755"/></g></g><g><path d="m325.586 66.735h-27.095c-4.143 0-7.5-3.358-7.5-7.5s3.357-7.5 7.5-7.5h27.095c4.143 0 7.5 3.358 7.5 7.5s-3.358 7.5-7.5 7.5z" fill="#ffbd86"/></g></g><g><g><path d="m368.077 0h32.148v100.682h-32.148z" fill="#d88a55"/><g><path d="m409.328 0v33.481c0 1.138.922 2.06 2.06 2.06h25.455c1.138 0 2.06-.922 2.06-2.06v-33.481z" fill="#fd4755"/></g></g><g><path d="m437.664 66.735h-27.096c-4.143 0-7.5-3.358-7.5-7.5s3.357-7.5 7.5-7.5h27.096c4.143 0 7.5 3.358 7.5 7.5s-3.357 7.5-7.5 7.5z" fill="#ffbd86"/></g></g></g><g><path d="m36.907 99.682h438.187v25.964h-438.187z" fill="#faea5e"/></g><g><path d="m37.907 99.682h38.842v25.963h-38.842z" fill="#ffd600"/></g></g><g><path d="m11.943 508.909v-505.818c0-1.707 1.384-3.091 3.091-3.091h19.782c1.707 0 3.091 1.384 3.091 3.091v505.819c0 1.707-1.384 3.091-3.091 3.091h-19.782c-1.707-.001-3.091-1.385-3.091-3.092z" fill="#596c76"/></g><g><path d="m474.093 508.909v-508.909h22.873c1.707 0 3.091 1.384 3.091 3.091v505.819c0 1.707-1.384 3.091-3.091 3.091h-19.782c-1.707-.001-3.091-1.385-3.091-3.092z" fill="#596c76"/></g></g></svg>